<svg width="1443" height="1037" viewBox="0 0 1443 1037" fill="none" xmlns="http://www.w3.org/2000/svg">
<g filter="url(#filter0_bd_61_232)">
<path d="M43 89C43 61.3858 65.3858 39 93 39H1246.07C1260.19 39 1273.66 44.9715 1283.14 55.4393L1387.06 170.213C1395.39 179.408 1400 191.369 1400 203.774V312.577C1400 322.625 1396.97 332.441 1391.31 340.743L1378.69 359.257C1373.03 367.559 1370 377.375 1370 387.424V443.142C1370 454.385 1373.79 465.3 1380.76 474.124L1389.24 484.876C1396.21 493.7 1400 504.615 1400 515.858V940C1400 967.614 1377.61 990 1350 990H93C65.3858 990 43 967.614 43 940V89Z" fill="url(#paint0_linear_61_232)" shape-rendering="crispEdges"/>
<path d="M1350 989.5H93C65.6619 989.5 43.5 967.338 43.5 940V89C43.5 61.6619 65.6619 39.5 93 39.5H1246.07C1260.05 39.5 1273.38 45.4118 1282.77 55.7749L1386.69 170.549C1394.94 179.652 1399.5 191.493 1399.5 203.774V312.577C1399.5 322.525 1396.5 332.242 1390.9 340.462L1378.28 358.975C1372.56 367.361 1369.5 377.274 1369.5 387.424V443.142C1369.5 454.497 1373.33 465.521 1380.36 474.434L1388.85 485.186C1395.75 493.922 1399.5 504.728 1399.5 515.858V940C1399.5 967.338 1377.34 989.5 1350 989.5Z" stroke="#575757" shape-rendering="crispEdges"/>
</g>
<path fill-rule="evenodd" clip-rule="evenodd" d="M1362.46 888.572L1350.04 901L1344 894.964L1356.43 882.536L1344 882.536L1344 874L1371 874L1371 901L1362.46 901L1362.46 888.572Z" fill="white"/>
<path fill-rule="evenodd" clip-rule="evenodd" d="M1362.46 851.572L1350.04 864L1344 857.964L1356.43 845.536L1344 845.536L1344 837L1371 837L1371 864L1362.46 864L1362.46 851.572Z" fill="white"/>
<path fill-rule="evenodd" clip-rule="evenodd" d="M1362.46 925.572L1350.04 938L1344 931.964L1356.43 919.536L1344 919.536L1344 911L1371 911L1371 938L1362.46 938L1362.46 925.572Z" fill="white"/>
<path d="M1344 805.564L1344 808.282L1371 808.282L1371 805.564L1344 805.564Z" fill="white"/>
<path d="M1344 800.128L1344 802.846L1371 802.846L1371 800.128L1344 800.128Z" fill="white"/>
<path d="M1344 794.692L1344 797.41L1371 797.41L1371 794.692L1344 794.692Z" fill="white"/>
<path d="M1344 791.974L1344 794.692L1371 794.692L1371 791.974L1344 791.974Z" fill="white"/>
<path d="M1344 786.538L1344 789.256L1371 789.256L1371 786.538L1344 786.538Z" fill="white"/>
<path d="M1344 783.821L1344 786.538L1371 786.538L1371 783.821L1344 783.821Z" fill="white"/>
<path d="M1344 781.103L1344 783.821L1371 783.821L1371 781.103L1344 781.103Z" fill="white"/>
<path d="M1344 770.231L1344 772.949L1371 772.949L1371 770.231L1344 770.231Z" fill="white"/>
<path d="M1344 767.513L1344 770.231L1371 770.231L1371 767.513L1344 767.513Z" fill="white"/>
<path d="M1344 762.077L1344 764.795L1371 764.795L1371 762.077L1344 762.077Z" fill="white"/>
<path d="M1344 751.205L1344 753.923L1371 753.923L1371 751.205L1344 751.205Z" fill="white"/>
<path d="M1344 748.487L1344 751.205L1371 751.205L1371 748.487L1344 748.487Z" fill="white"/>
<path d="M1344 743.051L1344 745.769L1371 745.769L1371 743.051L1344 743.051Z" fill="white"/>
<path d="M1344 734.897L1344 737.615L1371 737.615L1371 734.897L1344 734.897Z" fill="white"/>
<path d="M1344 726.744L1344 729.462L1371 729.462L1371 726.744L1344 726.744Z" fill="white"/>
<path d="M1344 724.026L1344 726.744L1371 726.744L1371 724.026L1344 724.026Z" fill="white"/>
<path d="M1344 718.59L1344 721.308L1371 721.308L1371 718.59L1344 718.59Z" fill="white"/>
<path d="M1344 707.718L1344 710.436L1371 710.436L1371 707.718L1344 707.718Z" fill="white"/>
<path d="M1344 705L1344 707.718L1371 707.718L1371 705L1344 705Z" fill="white"/>
<path d="M1344 694.128L1344 696.846L1371 696.846L1371 694.128L1344 694.128Z" fill="white"/>
<path d="M1344 691.41L1344 694.128L1371 694.128L1371 691.41L1344 691.41Z" fill="white"/>
<path d="M1344 685.974L1344 688.692L1371 688.692L1371 685.974L1344 685.974Z" fill="white"/>
<path d="M1344 680.538L1344 683.256L1371 683.256L1371 680.538L1344 680.538Z" fill="white"/>
<path d="M1344 675.103L1344 677.821L1371 677.821L1371 675.103L1344 675.103Z" fill="white"/>
<path d="M1344 669.667L1344 672.385L1371 672.385L1371 669.667L1344 669.667Z" fill="white"/>
<path d="M1344 661.513L1344 664.231L1371 664.231L1371 661.513L1344 661.513Z" fill="white"/>
<path d="M1344 658.795L1344 661.513L1371 661.513L1371 658.795L1344 658.795Z" fill="white"/>
<path d="M1344 656.077L1344 658.795L1371 658.795L1371 656.077L1344 656.077Z" fill="white"/>
<path d="M1344 650.641L1344 653.359L1371 653.359L1371 650.641L1344 650.641Z" fill="white"/>
<path d="M1344 642.487L1344 645.205L1371 645.205L1371 642.487L1344 642.487Z" fill="white"/>
<path d="M1344 631.615L1344 634.333L1371 634.333L1371 631.615L1344 631.615Z" fill="white"/>
<path d="M1344 628.897L1344 631.615L1371 631.615L1371 628.897L1344 628.897Z" fill="white"/>
<path d="M1344 620.744L1344 623.462L1371 623.462L1371 620.744L1344 620.744Z" fill="white"/>
<path d="M1344 618.026L1344 620.744L1371 620.744L1371 618.026L1344 618.026Z" fill="white"/>
<path d="M1344 612.59L1344 615.308L1371 615.308L1371 612.59L1344 612.59Z" fill="white"/>
<path d="M1344 604.436L1344 607.154L1371 607.154L1371 604.436L1344 604.436Z" fill="white"/>
<path d="M1344 601.718L1344 604.436L1371 604.436L1371 601.718L1344 601.718Z" fill="white"/>
<path d="M1344 599L1344 601.718L1371 601.718L1371 599L1344 599Z" fill="white"/>
<defs>
<filter id="filter0_bd_61_232" x="0" y="0" width="1443" height="1037" filterUnits="userSpaceOnUse" color-interpolation-filters="sRGB">
<feFlood flood-opacity="0" result="BackgroundImageFix"/>
<feGaussianBlur in="BackgroundImageFix" stdDeviation="4.5"/>
<feComposite in2="SourceAlpha" operator="in" result="effect1_backgroundBlur_61_232"/>
<feColorMatrix in="SourceAlpha" type="matrix" values="0 0 0 0 0 0 0 0 0 0 0 0 0 0 0 0 0 0 127 0" result="hardAlpha"/>
<feOffset dy="4"/>
<feGaussianBlur stdDeviation="21.5"/>
<feComposite in2="hardAlpha" operator="out"/>
<feColorMatrix type="matrix" values="0 0 0 0 0 0 0 0 0 0 0 0 0 0 0 0 0 0 0.25 0"/>
<feBlend mode="normal" in2="effect1_backgroundBlur_61_232" result="effect2_dropShadow_61_232"/>
<feBlend mode="normal" in="SourceGraphic" in2="effect2_dropShadow_61_232" result="shape"/>
</filter>
<linearGradient id="paint0_linear_61_232" x1="721.5" y1="39" x2="1387.5" y2="990" gradientUnits="userSpaceOnUse">
<stop stop-color="#0F0F0F"/>
<stop offset="1" stop-color="#0F0F0F" stop-opacity="0"/>
</linearGradient>
</defs>
</svg>
