<svg width="1357" height="951" viewBox="0 0 1357 951" fill="none" xmlns="http://www.w3.org/2000/svg">
<path d="M1307 950.5H50C22.6619 950.5 0.5 928.338 0.5 901V50C0.5 22.6619 22.6619 0.5 50 0.5H1203.07C1217.05 0.5 1230.38 6.41181 1239.77 16.7749L1343.69 131.549C1351.94 140.652 1356.5 152.493 1356.5 164.774V273.577C1356.5 283.525 1353.5 293.242 1347.9 301.462L1335.28 319.975C1329.56 328.361 1326.5 338.274 1326.5 348.424V404.142C1326.5 415.497 1330.33 426.521 1337.36 435.434L1345.85 446.186C1352.75 454.922 1356.5 465.728 1356.5 476.858V901C1356.5 928.338 1334.34 950.5 1307 950.5Z" stroke="white"/>
</svg>
