<svg width="778" height="64" viewBox="0 0 778 64" fill="none" xmlns="http://www.w3.org/2000/svg">
<path d="M45.718 62V50.906H13.296V1.8H0.224001V62H45.718ZM80.4264 63.376C100.722 63.376 112.59 50.132 112.59 32.072C112.59 14.098 100.464 0.423998 80.4264 0.423998C60.3884 0.423998 48.2624 14.098 48.2624 32.072C48.2624 50.132 60.1304 63.376 80.4264 63.376ZM80.5124 52.54C68.7304 52.54 61.9364 43.768 61.9364 31.986C61.9364 20.032 68.7304 11.26 80.5124 11.26C92.2084 11.26 98.9164 20.032 98.9164 31.986C98.9164 43.768 92.2084 52.54 80.5124 52.54ZM177.901 62L155.111 1.8H138.169L115.207 62H129.225L134.213 47.896H158.637L163.453 62H177.901ZM142.555 24.074C144.017 19.946 144.103 15.474 144.189 9.11H148.833C148.919 15.474 149.091 19.946 150.467 23.988L154.939 37.06H137.997L142.555 24.074ZM208.366 62C225.566 62 240.186 50.82 240.186 31.47C240.186 12.636 225.566 1.8 208.366 1.8H185.662V62H208.366ZM198.734 12.636H208.28C220.664 12.636 226.684 20.29 226.684 31.728C226.684 44.456 220.578 51.164 207.764 51.164H198.734V12.636ZM264.073 62V1.8H251.001V62H264.073ZM291.62 62V33.276C291.62 23.386 288.954 17.968 285.858 12.206L289.814 9.712L321.032 62H336.77V1.8H323.698V24.504C323.698 33.62 325.074 36.888 329.288 43.854L325.418 46.52L298.672 1.8H278.548V62H291.62ZM375.791 63.376C388.089 63.376 392.475 54.776 394.453 49.702H399.785C397.033 54.174 395.743 58.99 395.743 62H407.525V31.04H375.275V41.876H394.711C393.937 46.778 389.379 52.626 379.145 52.626C369.341 52.626 361.171 45.23 361.171 32.158C361.171 19 368.825 11.26 379.489 11.26C388.863 11.26 393.249 16.764 395.571 23.386L407.869 18.828C404.687 9.024 395.829 0.423998 379.489 0.423998C361.257 0.423998 347.583 14.27 347.583 32.158C347.583 52.282 361.085 63.376 375.791 63.376ZM493.599 62L470.809 1.8H453.867L430.905 62H444.923L449.911 47.896H474.335L479.151 62H493.599ZM458.253 24.074C459.715 19.946 459.801 15.474 459.887 9.11H464.531C464.617 15.474 464.789 19.946 466.165 23.988L470.637 37.06H453.695L458.253 24.074ZM523.223 63.376C540.853 63.376 548.593 54.69 548.593 44.37C548.593 33.276 539.993 27.428 527.523 25.708L520.041 24.676C515.139 23.988 512.301 21.752 512.301 18.226C512.301 14.528 514.795 10.83 522.535 10.83C530.189 10.83 534.145 15.13 535.951 20.72L547.991 16.506C545.411 8.164 537.929 0.423998 522.535 0.423998C506.883 0.423998 498.713 9.11 498.713 18.742C498.713 29.922 506.109 35.168 517.719 36.802L525.201 37.834C532.425 38.866 535.005 41.532 535.005 45.23C535.005 49.53 531.737 52.97 523.223 52.97C513.763 52.97 509.205 46.606 508.001 40.672L495.703 44.8C498.025 54.69 506.453 63.376 523.223 63.376ZM582.096 63.376C599.726 63.376 607.466 54.69 607.466 44.37C607.466 33.276 598.866 27.428 586.396 25.708L578.914 24.676C574.012 23.988 571.174 21.752 571.174 18.226C571.174 14.528 573.668 10.83 581.408 10.83C589.062 10.83 593.018 15.13 594.824 20.72L606.864 16.506C604.284 8.164 596.802 0.423998 581.408 0.423998C565.756 0.423998 557.586 9.11 557.586 18.742C557.586 29.922 564.982 35.168 576.592 36.802L584.074 37.834C591.298 38.866 593.878 41.532 593.878 45.23C593.878 49.53 590.61 52.97 582.096 52.97C572.636 52.97 568.078 46.606 566.874 40.672L554.576 44.8C556.898 54.69 565.326 63.376 582.096 63.376ZM663.759 62V51.164H631.337V36.372H655.847V25.708H631.337V12.636H663.759V1.8H618.265V62H663.759ZM702.386 62V12.636H723.026V1.8H668.674V12.636H689.314V62H702.386ZM752.584 63.376C770.214 63.376 777.954 54.69 777.954 44.37C777.954 33.276 769.354 27.428 756.884 25.708L749.402 24.676C744.5 23.988 741.662 21.752 741.662 18.226C741.662 14.528 744.156 10.83 751.896 10.83C759.55 10.83 763.506 15.13 765.312 20.72L777.352 16.506C774.772 8.164 767.29 0.423998 751.896 0.423998C736.244 0.423998 728.074 9.11 728.074 18.742C728.074 29.922 735.47 35.168 747.08 36.802L754.562 37.834C761.786 38.866 764.366 41.532 764.366 45.23C764.366 49.53 761.098 52.97 752.584 52.97C743.124 52.97 738.566 46.606 737.362 40.672L725.064 44.8C727.386 54.69 735.814 63.376 752.584 63.376Z" fill="black"/>
</svg>
