<svg viewBox="0 0 279 952" fill="none" xmlns="http://www.w3.org/2000/svg">
<path fill-rule="evenodd" clip-rule="evenodd" d="M278.475 417.934C192.725 331.025 86.313 223.173 0.562988 136.263V2.98006C56.0246 59.2326 119.099 123.119 175.527 180.31C179.353 184.188 185.838 181.412 185.838 175.983V1.22472L278.475 95.115V204.599H213.629C208.232 204.599 205.533 211.172 209.319 215.05C231.311 237.338 258.78 265.179 278.475 285.182V417.934Z" fill="white"/>
<path fill-rule="evenodd" clip-rule="evenodd" d="M278.475 689.175C257.692 668.111 206.218 616.022 185.837 595.285V337.29C218.019 369.907 249.435 401.748 278.475 431.181V689.175Z" fill="white"/>
<path fill-rule="evenodd" clip-rule="evenodd" d="M93.1987 501.394C72.4157 480.33 20.9415 428.242 0.561279 407.504V149.51C29.6011 178.942 61.0172 210.783 93.1987 243.4V501.394Z" fill="white"/>
<path fill-rule="evenodd" clip-rule="evenodd" d="M278.473 951.64H50.561C22.9468 951.64 0.561035 929.254 0.561035 901.64V857.749H189.863V929.473C189.863 934.862 196.227 937.638 200.054 933.923C225.71 909.022 264.819 871.098 278.473 857.79V951.68V951.64Z" fill="white"/>
<path fill-rule="evenodd" clip-rule="evenodd" d="M177.782 587.12C156.717 565.811 121.032 529.684 100.49 508.824V250.789C126.106 276.751 152.125 303.122 177.782 329.126V587.12Z" fill="white"/>
<path fill-rule="evenodd" clip-rule="evenodd" d="M65.0047 849.585V792.312C65.0047 786.842 58.4798 784.106 54.6937 787.985L0.561279 842.849V708.545C19.3304 689.522 57.3117 651.027 76.4837 631.596C57.4326 612.246 19.1693 573.547 0.561279 554.647V421.853C91.3459 513.906 187.769 611.552 278.473 703.524L276.782 836.603C239.485 793.373 181.164 739.406 141.974 698.013L95.3736 745.244C91.5876 749.081 94.2459 755.694 99.643 755.694H189.864V849.585H65.0047Z" fill="white"/>
</svg>
