<svg viewBox="0 0 432 432" fill="none" xmlns="http://www.w3.org/2000/svg">
<path d="M280.136 84.0616C285.699 80.8271 292.698 84.7092 292.9 91.1408L293.349 105.43C293.515 110.733 298.447 114.589 303.634 113.47L317.608 110.454C323.898 109.097 329.356 114.952 327.56 121.131L323.571 134.86C322.091 139.955 325.59 145.146 330.869 145.684L345.091 147.135C351.493 147.788 354.874 155.043 351.257 160.365L343.22 172.188C340.238 176.577 341.962 182.595 346.816 184.738L359.894 190.513C365.78 193.112 366.754 201.057 361.669 205L350.373 213.762C346.18 217.014 345.96 223.27 349.914 226.808L360.567 236.342C365.363 240.633 363.834 248.49 357.779 250.669L344.328 255.511C339.336 257.308 337.193 263.19 339.86 267.777L347.046 280.136C350.281 285.699 346.399 292.698 339.967 292.9L325.678 293.349C320.375 293.515 316.519 298.447 317.638 303.634L320.654 317.608C322.011 323.898 316.156 329.356 309.976 327.56L296.248 323.571C291.153 322.091 285.962 325.59 285.424 330.869L283.973 345.091C283.32 351.493 276.065 354.874 270.743 351.257L258.919 343.22C254.531 340.238 248.513 341.962 246.37 346.816L240.595 359.894C237.996 365.78 230.051 366.754 226.108 361.669L217.346 350.373C214.094 346.18 207.838 345.96 204.299 349.914L194.766 360.567C190.475 365.363 182.618 363.834 180.439 357.779L175.597 344.328C173.8 339.336 167.917 337.193 163.331 339.86L150.972 347.046C145.409 350.281 138.409 346.399 138.208 339.967L137.759 325.678C137.593 320.375 132.66 316.519 127.474 317.638L113.499 320.654C107.209 322.011 101.752 316.156 103.547 309.976L107.537 296.248C109.017 291.153 105.518 285.962 100.239 285.424L86.0167 283.973C79.6151 283.32 76.234 276.065 79.8512 270.743L87.8874 258.92C90.87 254.531 89.1458 248.513 84.2919 246.37L71.214 240.595C65.3275 237.996 64.3539 230.051 69.4385 226.108L80.7351 217.346C84.9278 214.094 85.1477 207.838 81.1937 204.299L70.5403 194.766C65.7451 190.475 67.2742 182.618 73.3287 180.439L86.7798 175.597C91.7722 173.8 93.9147 167.918 91.2476 163.331L84.0615 150.972C80.827 145.409 84.7092 138.409 91.1408 138.208L105.43 137.759C110.733 137.593 114.589 132.66 113.469 127.474L110.454 113.499C109.097 107.209 114.952 101.752 121.131 103.547L134.86 107.537C139.955 109.017 145.146 105.518 145.684 100.239L147.135 86.0167C147.788 79.6151 155.043 76.2341 160.365 79.8512L172.188 87.8874C176.577 90.87 182.595 89.1458 184.738 84.292L190.513 71.214C193.112 65.3275 201.057 64.3539 205 69.4386L213.762 80.7351C217.014 84.9278 223.27 85.1477 226.808 81.1937L236.342 70.5403C240.633 65.7451 248.489 67.2742 250.669 73.3287L255.511 86.7799C257.308 91.7722 263.19 93.9147 267.777 91.2476L280.136 84.0616Z" fill="#FFC227"/>
<g filter="url(#filter0_d_55_166)">
<path d="M230.74 157.569L241.116 160.183L230.723 201.439L272.227 211.894L267.03 232.523L256.654 229.909L259.253 219.595L217.749 209.14L225.544 178.197L215.168 175.583L217.766 165.269L228.142 167.883L230.74 157.569ZM202.194 183.284L204.792 172.97L215.168 175.583L212.57 185.898L202.194 183.284ZM189.22 190.984L191.818 180.67L202.194 183.284L199.596 193.598L189.22 190.984ZM176.246 198.684L178.844 188.37L189.22 190.984L186.622 201.298L176.246 198.684ZM217.732 253.01L215.134 263.324L204.758 260.71L202.16 271.024L191.784 268.411L202.177 227.154L160.673 216.699L165.87 196.071L176.246 198.684L173.648 208.998L215.151 219.454L207.356 250.396L217.732 253.01ZM230.706 245.31L228.108 255.624L217.732 253.01L220.33 242.696L230.706 245.31ZM243.68 237.609L241.082 247.923L230.706 245.31L233.304 234.995L243.68 237.609ZM243.68 237.609L254.056 240.223L256.654 229.909L246.278 227.295L243.68 237.609Z" fill="#FF8227"/>
</g>
<g style="mix-blend-mode:overlay">
<path d="M304.656 247.555C302.906 252.393 304.909 256.521 309.027 258.497L310.145 255.406C307.874 254.372 305.878 252.161 307.219 248.451C308.755 244.205 312.94 243.895 316.784 245.285C320.6 246.665 323.619 249.58 322.083 253.827C320.751 257.509 317.851 257.798 315.843 257.467L314.725 260.558C318.734 261.491 322.877 259.615 324.617 254.804C326.59 249.348 323.68 244.284 317.875 242.184C312.096 240.094 306.629 242.099 304.656 247.555Z" fill="black"/>
</g>
<g style="mix-blend-mode:overlay">
<path d="M293.752 270.154L296.089 271.536L301.357 262.631L316.609 271.652L318.21 268.946L300.62 258.542L293.752 270.154Z" fill="black"/>
</g>
<g style="mix-blend-mode:overlay">
<path d="M290.312 274.35L306.48 286.849L308.403 284.362L292.235 271.863L290.312 274.35Z" fill="black"/>
</g>
<g style="mix-blend-mode:overlay">
<path d="M281.341 283.668C277.629 287.23 277.595 291.818 280.411 295.414L282.783 293.138C281.206 291.206 280.396 288.338 283.242 285.608C286.501 282.481 290.39 284.058 293.219 287.007C296.029 289.936 297.443 293.887 294.184 297.013C291.359 299.724 288.631 298.697 286.978 297.511L284.606 299.786C287.786 302.399 292.331 302.554 296.023 299.012C300.21 294.995 299.845 289.166 295.571 284.711C291.317 280.277 285.528 279.651 281.341 283.668Z" fill="black"/>
</g>
<g style="mix-blend-mode:overlay">
<path d="M258.644 300.809L272.334 306.251L270.125 317.728L273.095 315.848L275.752 301.925L281.284 310.668L283.941 308.988L273.015 291.717L270.358 293.398L273.766 298.785L272.861 303.449L261.759 298.838L258.644 300.809Z" fill="black"/>
</g>
<g style="mix-blend-mode:overlay">
<path d="M257.433 307.091L260.631 315.872L262.922 320.921L265.733 319.646L263.443 314.597L258.916 306.418L257.433 307.091ZM254.453 302.323L255.741 305.16L258.578 303.873L257.291 301.036L254.453 302.323Z" fill="black"/>
</g>
<g style="mix-blend-mode:overlay">
<path d="M236.538 313.669L238.097 320.173L244.573 318.622L243.015 312.118L236.538 313.669Z" fill="black"/>
</g>
<g style="mix-blend-mode:overlay">
<path d="M214.244 310.24C209.1 310.156 205.846 313.39 205.314 317.926L208.601 317.98C208.841 315.497 210.285 312.891 214.228 312.955C218.744 313.029 220.396 316.887 220.329 320.973C220.263 325.031 218.485 328.833 213.97 328.759C210.055 328.695 208.84 326.045 208.502 324.039L205.215 323.985C205.634 328.08 208.753 331.389 213.868 331.473C219.67 331.568 223.515 327.171 223.616 320.998C223.716 314.854 220.045 310.335 214.244 310.24Z" fill="black"/>
</g>
<g style="mix-blend-mode:overlay">
<path d="M189.447 307.227L188.896 309.886L199.028 311.986L195.432 329.338L198.511 329.976L202.657 309.965L189.447 307.227Z" fill="black"/>
</g>
<g style="mix-blend-mode:overlay">
<path d="M183.948 305.212L177.369 324.56L180.345 325.572L186.925 306.224L183.948 305.212Z" fill="black"/>
</g>
<g style="mix-blend-mode:overlay">
<path d="M172.288 299.756C167.718 297.393 163.365 298.843 160.872 302.67L163.791 304.179C165.111 302.062 167.563 300.37 171.067 302.181C175.078 304.256 174.842 308.445 172.965 312.076C171.101 315.681 167.818 318.296 163.807 316.221C160.329 314.423 160.419 311.509 161.008 309.562L158.089 308.052C156.643 311.906 157.964 316.257 162.509 318.607C167.663 321.272 173.062 319.044 175.898 313.56C178.72 308.102 177.442 302.421 172.288 299.756Z" fill="black"/>
</g>
<g style="mix-blend-mode:overlay">
<path d="M148.834 283.882L148.121 298.598L136.548 300.226L139.289 302.428L153.322 300.429L146.843 308.496L149.294 310.465L162.092 294.532L159.641 292.563L155.649 297.532L150.943 298.188L151.708 286.191L148.834 283.882Z" fill="black"/>
</g>
<g style="mix-blend-mode:overlay">
<path d="M142.551 284.777L135.267 290.632L131.224 294.427L133.337 296.678L137.38 292.883L143.665 285.965L142.551 284.777ZM146.106 280.421L143.834 282.553L145.966 284.825L148.238 282.693L146.106 280.421Z" fill="black"/>
</g>
<g style="mix-blend-mode:overlay">
<path d="M129.616 267.138L123.964 270.714L127.524 276.341L133.176 272.766L129.616 267.138Z" fill="black"/>
</g>
<g style="mix-blend-mode:overlay">
<path d="M125.645 244.957C124.063 240.061 119.952 238.026 115.487 238.988L116.497 242.116C118.925 241.542 121.858 242.066 123.07 245.819C124.459 250.116 121.342 252.926 117.453 254.182C113.591 255.43 109.419 254.976 108.03 250.679C106.826 246.953 108.942 244.948 110.731 243.979L109.721 240.851C105.981 242.57 103.856 246.591 105.429 251.459C107.213 256.98 112.616 259.199 118.491 257.301C124.338 255.412 127.429 250.478 125.645 244.957Z" fill="black"/>
</g>
<g style="mix-blend-mode:overlay">
<path d="M120.433 220.601L117.739 220.945L119.052 231.208L101.474 233.456L101.873 236.574L122.144 233.982L120.433 220.601Z" fill="black"/>
</g>
<g style="mix-blend-mode:overlay">
<path d="M120.572 215.216L100.136 215.271L100.144 218.415L120.58 218.36L120.572 215.216Z" fill="black"/>
</g>
<g style="mix-blend-mode:overlay">
<path d="M121.926 202.343C122.677 197.254 119.893 193.607 115.464 192.491L114.984 195.743C117.415 196.304 119.812 198.073 119.236 201.975C118.577 206.443 114.537 207.58 110.494 206.983C106.479 206.391 102.94 204.135 103.6 199.667C104.171 195.794 106.956 194.933 108.99 194.858L109.47 191.606C105.355 191.49 101.669 194.153 100.922 199.214C100.075 204.954 103.935 209.338 110.042 210.239C116.121 211.136 121.079 208.083 121.926 202.343Z" fill="black"/>
</g>
<g style="mix-blend-mode:overlay">
<path d="M129.361 174.723L115.207 178.814L109.92 168.391L108.724 171.697L115.158 184.328L105.429 180.809L104.359 183.765L123.577 190.716L124.646 187.759L118.653 185.591L116.508 181.351L128.107 178.191L129.361 174.723Z" fill="black"/>
</g>
<g style="mix-blend-mode:overlay">
<path d="M126.378 169.153L118.467 164.178L113.561 161.594L112.122 164.325L117.028 166.909L125.618 170.594L126.378 169.153ZM131.655 171.093L128.899 169.641L127.447 172.397L130.203 173.849L131.655 171.093Z" fill="black"/>
</g>
<g style="mix-blend-mode:overlay">
<path d="M138.794 151.197L133.58 147.008L129.409 152.2L134.624 156.388L138.794 151.197Z" fill="black"/>
</g>
<g style="mix-blend-mode:overlay">
<path d="M158.583 140.132C162.708 137.058 163.311 132.51 160.962 128.592L158.327 130.556C159.652 132.67 160.1 135.615 156.938 137.972C153.317 140.67 149.653 138.624 147.211 135.347C144.786 132.092 143.872 127.997 147.493 125.298C150.633 122.959 153.213 124.315 154.706 125.698L157.342 123.734C154.51 120.747 150.019 120.03 145.917 123.087C141.264 126.554 140.903 132.383 144.592 137.334C148.264 142.261 153.931 143.599 158.583 140.132Z" fill="black"/>
</g>
<g style="mix-blend-mode:overlay">
<path d="M180.128 127.217L178.934 124.778L169.641 129.326L161.853 113.408L159.029 114.79L168.01 133.146L180.128 127.217Z" fill="black"/>
</g>
<g style="mix-blend-mode:overlay">
<path d="M185.44 125.525L178.801 106.197L175.827 107.219L182.467 126.546L185.44 125.525Z" fill="black"/>
</g>
<g style="mix-blend-mode:overlay">
<path d="M197.964 122.658C203.023 121.721 205.572 117.906 205.193 113.354L201.962 113.953C202.218 116.434 201.32 119.275 197.441 119.993C193.001 120.816 190.617 117.363 189.873 113.344C189.133 109.353 190.122 105.275 194.562 104.452C198.412 103.739 200.128 106.095 200.858 107.995L204.09 107.396C202.867 103.466 199.154 100.84 194.124 101.772C188.419 102.829 185.521 107.9 186.646 113.971C187.765 120.013 192.259 123.715 197.964 122.658Z" fill="black"/>
</g>
<g style="mix-blend-mode:overlay">
<path d="M225.855 120.757L217.391 108.699L225.532 100.314L222.017 100.256L212.16 110.443L212.329 100.098L209.185 100.046L208.851 120.48L211.995 120.531L212.099 114.158L215.413 110.753L222.168 120.697L225.855 120.757Z" fill="black"/>
</g>
<g style="mix-blend-mode:overlay">
<path d="M230.169 116.103L232.307 107.005L233.159 101.526L230.108 101.052L229.257 106.531L228.56 115.852L230.169 116.103ZM230.048 121.724L230.526 118.646L227.448 118.167L226.969 121.246L230.048 121.724Z" fill="black"/>
</g>
<g style="mix-blend-mode:overlay">
<path d="M251.786 122.152L254.061 115.862L247.798 113.597L245.524 119.887L251.786 122.152Z" fill="black"/>
</g>
<g style="mix-blend-mode:overlay">
<path d="M268.761 137.341C273.001 140.255 277.501 139.358 280.451 135.872L277.742 134.01C276.169 135.947 273.526 137.321 270.275 135.087C266.553 132.53 267.308 128.402 269.623 125.033C271.921 121.688 275.503 119.503 279.225 122.06C282.453 124.277 282 127.157 281.173 129.016L283.882 130.878C285.796 127.234 285.027 122.752 280.81 119.854C276.028 116.569 270.393 118.107 266.897 123.196C263.417 128.261 263.979 134.056 268.761 137.341Z" fill="black"/>
</g>
<g style="mix-blend-mode:overlay">
<path d="M287.724 153.402L289.649 151.487L282.35 144.154L294.909 131.652L292.691 129.424L278.207 143.841L287.724 153.402Z" fill="black"/>
</g>
<g style="mix-blend-mode:overlay">
<path d="M291.066 157.914L307.227 145.406L305.303 142.92L289.142 155.427L291.066 157.914Z" fill="black"/>
</g>
<g style="mix-blend-mode:overlay">
<path d="M297.742 168.703C300.268 173.185 304.703 174.36 308.887 172.527L307.273 169.663C305.009 170.71 302.03 170.781 300.094 167.345C297.877 163.41 300.371 160.036 303.932 158.029C307.468 156.037 311.646 155.651 313.864 159.585C315.786 162.996 314.113 165.383 312.552 166.689L314.166 169.552C317.488 167.122 318.769 162.759 316.257 158.301C313.409 153.247 307.672 152.149 302.293 155.18C296.94 158.197 294.894 163.648 297.742 168.703Z" fill="black"/>
</g>
<g style="mix-blend-mode:overlay">
<path d="M308.809 195.077L317.488 183.171L328.053 188.168L326.972 184.822L314.148 178.784L323.993 175.603L323.026 172.611L303.58 178.895L304.547 181.886L310.612 179.926L314.905 181.964L307.676 191.568L308.809 195.077Z" fill="black"/>
</g>
<g style="mix-blend-mode:overlay">
<path d="M314.56 197.543L323.86 196.617L329.319 195.648L328.779 192.609L323.32 193.578L314.276 195.939L314.56 197.543ZM309.203 199.249L312.27 198.704L311.726 195.637L308.658 196.182L309.203 199.249Z" fill="black"/>
</g>
<g style="mix-blend-mode:overlay">
<path d="M315.775 219.459L322.462 219.568L322.571 212.91L315.883 212.8L315.775 219.459Z" fill="black"/>
</g>
<defs>
<filter id="filter0_d_55_166" x="145.673" y="146.569" width="141.553" height="143.455" filterUnits="userSpaceOnUse" color-interpolation-filters="sRGB">
<feFlood flood-opacity="0" result="BackgroundImageFix"/>
<feColorMatrix in="SourceAlpha" type="matrix" values="0 0 0 0 0 0 0 0 0 0 0 0 0 0 0 0 0 0 127 0" result="hardAlpha"/>
<feOffset dy="4"/>
<feGaussianBlur stdDeviation="7.5"/>
<feComposite in2="hardAlpha" operator="out"/>
<feColorMatrix type="matrix" values="0 0 0 0 1 0 0 0 0 0.508706 0 0 0 0 0.152941 0 0 0 0.5 0"/>
<feBlend mode="normal" in2="BackgroundImageFix" result="effect1_dropShadow_55_166"/>
<feBlend mode="normal" in="SourceGraphic" in2="effect1_dropShadow_55_166" result="shape"/>
</filter>
</defs>
</svg>
