<svg width="80" height="80" viewBox="0 0 80 80" fill="none" xmlns="http://www.w3.org/2000/svg">
<path d="M65.1262 16.4688C60.5285 14.3166 55.5506 12.7545 50.3653 11.852C50.3198 11.8505 50.2746 11.8591 50.2328 11.8771C50.191 11.8951 50.1536 11.922 50.1233 11.9561C49.5011 13.1016 48.7751 14.5943 48.2911 15.7398C42.7912 14.9067 37.198 14.9067 31.6981 15.7398C31.2141 14.5596 30.4882 13.1016 29.8314 11.9561C29.7968 11.8867 29.6931 11.852 29.5894 11.852C24.4041 12.7545 19.4607 14.3166 14.8285 16.4688C14.7939 16.4688 14.7594 16.5035 14.7248 16.5382C5.32206 30.6665 2.7294 44.4129 4.00845 58.0204C4.00845 58.0899 4.04302 58.1593 4.11215 58.194C10.3345 62.7761 16.315 65.5532 22.2262 67.393C22.3299 67.4277 22.4336 67.393 22.4682 67.3236C23.851 65.4143 25.0954 63.401 26.1671 61.2835C26.2362 61.1446 26.1671 61.0058 26.0288 60.971C24.0584 60.2074 22.1917 59.3048 20.3595 58.2634C20.2212 58.194 20.2212 57.9857 20.3249 57.8816C20.7052 57.6039 21.0855 57.2915 21.4657 57.0138C21.5349 56.9443 21.6386 56.9443 21.7077 56.979C33.5994 62.429 46.4244 62.429 58.1778 56.979C58.247 56.9443 58.3507 56.9443 58.4198 57.0138C58.8001 57.3262 59.1803 57.6039 59.5606 57.9163C59.6989 58.0204 59.6989 58.2287 59.526 58.2981C57.7284 59.3742 55.8272 60.2421 53.8567 61.0058C53.7185 61.0405 53.6839 61.214 53.7185 61.3182C54.8247 63.4357 56.0691 65.449 57.4173 67.3583C57.521 67.393 57.6247 67.4277 57.7284 67.393C63.6743 65.5532 69.6547 62.7761 75.8771 58.194C75.9462 58.1593 75.9808 58.0899 75.9808 58.0204C77.5018 42.2954 73.4573 28.6531 65.2644 16.5382C65.2299 16.5035 65.1953 16.4688 65.1262 16.4688ZM27.9647 49.724C24.4041 49.724 21.4311 46.4262 21.4311 42.3648C21.4311 38.3034 24.3349 35.0056 27.9647 35.0056C31.629 35.0056 34.5327 38.3381 34.4982 42.3648C34.4982 46.4262 31.5944 49.724 27.9647 49.724ZM52.0591 49.724C48.4986 49.724 45.5256 46.4262 45.5256 42.3648C45.5256 38.3034 48.4294 35.0056 52.0591 35.0056C55.7234 35.0056 58.6272 38.3381 58.5927 42.3648C58.5927 46.4262 55.7234 49.724 52.0591 49.724Z" fill="white" fill-opacity="0.6"/>
</svg>
