<svg width="21" height="21" viewBox="0 0 21 21" fill="none" xmlns="http://www.w3.org/2000/svg">
<path d="M10.5 0C4.70105 0 0 4.70113 0 10.5C0 16.2993 4.70113 21 10.5 21C16.2994 21 21 16.2993 21 10.5C21 4.70154 16.2994 0.000574219 10.4998 0.000574219L10.4999 8.20313e-05L10.5 0ZM15.3152 15.1441C15.1271 15.4526 14.7233 15.5503 14.4149 15.361C11.9496 13.8552 8.84617 13.5141 5.19127 14.3492C5.02202 14.3877 4.8444 14.3574 4.69747 14.265C4.55053 14.1726 4.44631 14.0256 4.4077 13.8564C4.38847 13.7726 4.38594 13.6859 4.40028 13.6011C4.41461 13.5164 4.44553 13.4353 4.49124 13.3625C4.53696 13.2897 4.59659 13.2266 4.66671 13.1769C4.73683 13.1272 4.81607 13.0918 4.89989 13.0727C8.89973 12.1589 12.3305 12.5523 15.0983 14.2438C15.4067 14.4332 15.5045 14.8357 15.3152 15.1441ZM16.6003 12.2851C16.3633 12.6702 15.8593 12.7919 15.4744 12.5549C12.652 10.8201 8.34971 10.3176 5.01145 11.331C4.57849 11.4617 4.12125 11.2178 3.98984 10.7856C3.85941 10.3526 4.10353 9.89617 4.53575 9.76459C8.34898 8.60746 13.0896 9.16798 16.3308 11.1597C16.7157 11.3968 16.8373 11.9007 16.6003 12.2851ZM16.7107 9.30792C13.3266 7.29783 7.74326 7.11293 4.51229 8.0937C3.99345 8.25103 3.44474 7.9581 3.28757 7.43925C3.13031 6.92016 3.42292 6.37186 3.94218 6.21411C7.65105 5.08815 13.8169 5.30578 17.7129 7.61873C18.1807 7.89567 18.3336 8.49844 18.0565 8.96446C17.7807 9.43121 17.1763 9.58502 16.7112 9.30792H16.7107Z" fill="#0DFFAF"/>
</svg>
