<svg width="80" height="80" viewBox="0 0 80 80" fill="none" xmlns="http://www.w3.org/2000/svg">
<path d="M25.7189 73.6634C54.7133 73.6634 70.5742 49.5832 70.5742 28.7374C70.5742 28.0636 70.5742 27.3801 70.5454 26.7063C73.6334 24.4657 76.2985 21.6917 78.4158 18.5143C75.5314 19.7891 72.4746 20.6292 69.3449 21.0075C72.6416 19.0324 75.1108 15.9247 76.2934 12.262C73.196 14.1013 69.806 15.3924 66.2716 16.0789C63.8955 13.5425 60.7513 11.8622 57.326 11.2982C53.9006 10.7343 50.3854 11.3183 47.3247 12.9596C44.264 14.601 41.8286 17.2082 40.3959 20.3773C38.9632 23.5464 38.6131 27.1007 39.3998 30.4894C33.1319 30.1744 27.0002 28.5424 21.4021 25.6991C15.8041 22.8559 10.8649 18.8649 6.90476 13.9851C4.89436 17.4655 4.28083 21.5822 5.18875 25.4995C6.09668 29.4167 8.45799 32.8408 11.7932 35.0764C9.29394 34.9913 6.84964 34.3186 4.65743 33.1126V33.3292C4.66174 36.9751 5.92183 40.5076 8.2247 43.3298C10.5276 46.1519 13.732 48.0905 17.2962 48.8179C15.9434 49.1915 14.5458 49.3777 13.1425 49.3714C12.1532 49.3744 11.1659 49.2825 10.1941 49.0971C11.2015 52.2355 13.1631 54.9795 15.804 56.9448C18.445 58.91 21.6331 59.9981 24.9218 60.0566C19.335 64.4549 12.4338 66.8403 5.32971 66.8287C4.07794 66.834 2.82703 66.7617 1.58417 66.6121C8.79441 71.2196 17.168 73.666 25.7189 73.6634Z" fill="white" fill-opacity="0.6"/>
</svg>
